<svg xmlns="http://www.w3.org/2000/svg"><symbol id="icon-account" viewBox="0 0 12 12"><path d="M6 .667A2.667 2.667 0 116 6 2.667 2.667 0 016 .667zm0 6.666c2.947 0 5.333 1.194 5.333 2.667v1.333H.667V10C.667 8.527 3.053 7.333 6 7.333z" fill="#C4C4C4"/></symbol><symbol id="icon-android" viewBox="0 0 16 19"><path d="M2 11.534c0 .55-.45 1-1 1s-1-.45-1-1v-4.5c0-.55.45-1 1-1s1 .45 1 1v4.5zm14 0c0 .55-.45 1-1 1s-1-.45-1-1v-4.5c0-.55.45-1 1-1s1 .45 1 1v4.5zm-9 5.5c0 .55-.45 1-1 1s-1-.45-1-1v-4.5c0-.55.45-1 1-1s1 .45 1 1v4.5zm4 0c0 .55-.45 1-1 1s-1-.45-1-1v-4.5c0-.55.45-1 1-1s1 .45 1 1v4.5z" fill="#00E9BF"/><path d="M3 6.034v7.5c0 .55.45 1 1 1h8c.55 0 1-.45 1-1v-7.5H3zm5-5c-3 0-4.85 1.8-5 4h10c-.15-2.2-2-4-5-4zm-2 2.8c-.3 0-.5-.2-.5-.5s.2-.5.5-.5.5.2.5.5c0 .25-.2.5-.5.5zm4 0c-.3 0-.5-.2-.5-.5s.2-.5.5-.5.5.2.5.5c0 .25-.2.5-.5.5z" fill="#00E9BF"/><path d="M10.15 2.284c-.1 0-.2-.05-.3-.1-.25-.15-.3-.45-.15-.7l.85-1.25c.15-.25.45-.3.7-.15.25.15.3.45.15.7l-.85 1.25c-.05.15-.2.25-.4.25zm-4.5-.2c-.15 0-.35-.1-.4-.25L4.6.784c-.15-.25-.1-.55.15-.7.25-.15.55-.1.7.15l.65 1.05c.15.25.1.55-.15.7-.1.05-.2.1-.3.1z" fill="#00E9BF"/></symbol><symbol id="icon-apple" viewBox="0 0 16 19" fill="none"><path d="M15 12.473c-.41.885-.606 1.28-1.133 2.061-.736 1.092-1.775 2.454-3.06 2.463-1.142.01-1.437-.726-2.99-.713-1.55.007-1.873.727-3.017.716-1.285-.012-2.268-1.239-3.005-2.329C-.265 11.615-.483 8.032.79 6.127 1.691 4.775 3.116 3.98 4.454 3.98c1.364 0 2.221.73 3.348.73 1.094 0 1.76-.731 3.336-.731 1.192 0 2.452.632 3.354 1.724-2.947 1.573-2.469 5.672.508 6.769zM9.94 2.76c.574-.717 1.01-1.73.852-2.76-.936.062-2.03.644-2.669 1.397-.58.688-1.06 1.707-.873 2.693 1.022.031 2.078-.562 2.69-1.33z" fill="#00E9BF"/></symbol><symbol id="icon-menu" viewBox="0 0 14 7" fill="none"><path stroke="#C4C4C4" d="M0 .5h14m-14 6h14m-14-3h14"/></symbol><symbol id="icon-none" viewBox="0 0 14 14" fill="none"><path d="M7 .333A6.67 6.67 0 00.333 7 6.67 6.67 0 007 13.667 6.67 6.67 0 0013.667 7 6.67 6.67 0 007 .333zm3.333 7.334H3.667V6.333h6.666v1.334z" fill="#C4C4C4"/></symbol></svg>