<svg xmlns="http://www.w3.org/2000/svg">
<symbol id="icon-account" viewBox="0 0 12 12" width="12" height="12">
<path d="M6 0.666626C6.70724 0.666626 7.38552 0.947577 7.88562 1.44767C8.38571 1.94777 8.66666 2.62605 8.66666 3.33329C8.66666 4.04054 8.38571 4.71881 7.88562 5.21891C7.38552 5.71901 6.70724 5.99996 6 5.99996C5.29275 5.99996 4.61448 5.71901 4.11438 5.21891C3.61428 4.71881 3.33333 4.04054 3.33333 3.33329C3.33333 2.62605 3.61428 1.94777 4.11438 1.44767C4.61448 0.947577 5.29275 0.666626 6 0.666626ZM6 7.33329C8.94666 7.33329 11.3333 8.52663 11.3333 9.99996V11.3333H0.666664V9.99996C0.666664 8.52663 3.05333 7.33329 6 7.33329Z" fill="#C4C4C4"/>
</symbol>
<symbol id="icon-android" width="16" height="19" viewBox="0 0 16 19">
<path d="M2 11.5344C2 12.0844 1.55 12.5344 1 12.5344C0.45 12.5344 0 12.0844 0 11.5344V7.03442C0 6.48442 0.45 6.03442 1 6.03442C1.55 6.03442 2 6.48442 2 7.03442V11.5344ZM16 11.5344C16 12.0844 15.55 12.5344 15 12.5344C14.45 12.5344 14 12.0844 14 11.5344V7.03442C14 6.48442 14.45 6.03442 15 6.03442C15.55 6.03442 16 6.48442 16 7.03442V11.5344ZM7 17.0344C7 17.5844 6.55 18.0344 6 18.0344C5.45 18.0344 5 17.5844 5 17.0344V12.5344C5 11.9844 5.45 11.5344 6 11.5344C6.55 11.5344 7 11.9844 7 12.5344V17.0344ZM11 17.0344C11 17.5844 10.55 18.0344 10 18.0344C9.45 18.0344 9 17.5844 9 17.0344V12.5344C9 11.9844 9.45 11.5344 10 11.5344C10.55 11.5344 11 11.9844 11 12.5344V17.0344Z" fill="#00E9BF"/>
<path d="M3 6.03442V13.5344C3 14.0844 3.45 14.5344 4 14.5344H12C12.55 14.5344 13 14.0844 13 13.5344V6.03442H3ZM8 1.03442C5 1.03442 3.15 2.83442 3 5.03442H13C12.85 2.83442 11 1.03442 8 1.03442ZM6 3.83442C5.7 3.83442 5.5 3.63442 5.5 3.33442C5.5 3.03442 5.7 2.83442 6 2.83442C6.3 2.83442 6.5 3.03442 6.5 3.33442C6.5 3.58442 6.3 3.83442 6 3.83442ZM10 3.83442C9.7 3.83442 9.5 3.63442 9.5 3.33442C9.5 3.03442 9.7 2.83442 10 2.83442C10.3 2.83442 10.5 3.03442 10.5 3.33442C10.5 3.58442 10.3 3.83442 10 3.83442Z" fill="#00E9BF"/>
<path d="M10.15 2.28438C10.05 2.28438 9.95 2.23438 9.85 2.18438C9.6 2.03438 9.55 1.73438 9.7 1.48438L10.55 0.234375C10.7 -0.0156249 11 -0.0656251 11.25 0.084375C11.5 0.234375 11.55 0.534375 11.4 0.784375L10.55 2.03438C10.5 2.18438 10.35 2.28438 10.15 2.28438ZM5.65 2.08438C5.5 2.08438 5.3 1.98438 5.25 1.83438L4.6 0.784375C4.45 0.534375 4.5 0.234375 4.75 0.084375C5 -0.0656251 5.3 -0.0156249 5.45 0.234375L6.1 1.28438C6.25 1.53438 6.2 1.83438 5.95 1.98438C5.85 2.03438 5.75 2.08438 5.65 2.08438Z" fill="#00E9BF"/>
</symbol>
<symbol id="icon-apple" width="15" height="17" viewBox="0 0 15 18" fill="none">
<path d="M15 12.4727C14.5909 13.3577 14.3937 13.7532 13.8675 14.5342C13.1307 15.6256 12.0916 16.9883 10.8079 16.997C9.66495 17.0071 9.36996 16.2708 7.81792 16.2838C6.26736 16.2911 5.9442 17.0114 4.79981 16.9999C3.5146 16.9883 2.53179 15.7613 1.79505 14.6713C-0.265444 11.6152 -0.483353 8.0322 0.790003 6.12665C1.69128 4.77544 3.11584 3.98146 4.45442 3.98146C5.8182 3.98146 6.67501 4.71047 7.80161 4.71047C8.8956 4.71047 9.56119 3.98001 11.1384 3.98001C12.3303 3.98001 13.5903 4.61231 14.4915 5.70367C11.5446 7.2772 12.0234 11.3756 15 12.4727ZM9.94067 2.76017C10.5143 2.0427 10.9502 1.03073 10.7916 0C9.85618 0.062075 8.76219 0.643847 8.12329 1.39741C7.54368 2.08456 7.06339 3.10375 7.25017 4.08973C8.27152 4.12149 9.32845 3.52816 9.94067 2.76017Z" fill="#00E9BF"/>
</symbol>
<symbol id="icon-menu" width="14" height="7" viewBox="0 0 14 7" fill="none">
<line x1="-4.37114e-08" y1="0.5" x2="14" y2="0.499999" stroke="#C4C4C4"/>
<line x1="-4.37114e-08" y1="6.5" x2="14" y2="6.5" stroke="#C4C4C4"/>
<line x1="-4.37114e-08" y1="3.5" x2="14" y2="3.5" stroke="#C4C4C4"/>
</symbol>
<symbol id="icon-none" width="14" height="14" viewBox="0 0 14 14" fill="none">
<path d="M7.00004 0.333344C3.32004 0.333344 0.333374 3.32001 0.333374 7.00001C0.333374 10.68 3.32004 13.6667 7.00004 13.6667C10.68 13.6667 13.6667 10.68 13.6667 7.00001C13.6667 3.32001 10.68 0.333344 7.00004 0.333344ZM10.3334 7.66668H3.66671V6.33334H10.3334V7.66668Z" fill="#C4C4C4"/>
</symbol>
</svg>